#format: frame checksums
#version: 2
#hash: MD5
#extradata 0,                              16, 9881f4423f0a3b5da25a0574d3451eef
#tb 0: 1/25
#media_type 0: video
#codec_id 0: utvideo
#dimensions 0: 352x288
#sar 0: 0/1
#stream#, dts,        pts, duration,     size, hash
0,          0,          0,        1,   207164, 91bd0a04c522e4a449a2b2729cceb273
0,          1,          1,        1,   207188, 8a9a23c32503fe30df47a598d319591e
0,          2,          2,        1,   207980, fac02289d860c485b09053119a259772
0,          3,          3,        1,   206944, bc0251f0a3ad5881cb402d1d071cbfe8
0,          4,          4,        1,   206200, e3b811ea58b790b171b75c9af46a3637
0,          5,          5,        1,   207100, 076ca542190996d4ff4380bfff1b8707
0,          6,          6,        1,   207172, 87d8540012df5c62ffcec97ac4255e44
0,          7,          7,        1,   206444, 8a4a787dd73b93653ab69622b3fcaa6d
0,          8,          8,        1,   206884, e4ce5916ecee62387a44257f9f7e309f
0,          9,          9,        1,   207632, 67f343e24f47b1eddb47e59831752aab
0,         10,         10,        1,   206916, 6a1d003a2b3c10bd87d5b71a0ecb6fae
0,         11,         11,        1,   206572, 8939adde46e92bf02be301590de578ae
0,         12,         12,        1,   205832, ac36ce0cc201b89aa85aea9f8f85b654
0,         13,         13,        1,   206712, 1d85faa22ef18e060354d2e2931f78f3
0,         14,         14,        1,   207496, 2459b868050730ba3c3152443f119e59
0,         15,         15,        1,   207788, 27616d7494e570814378a35fd72b3d4a
0,         16,         16,        1,   206988, 4f0daddba744ae0ebeea8b55ebc6778b
0,         17,         17,        1,   207056, e2340667064a25a75f67e261fe96baf7
0,         18,         18,        1,   206440, d487795c5f4a3f338cebfd36b264a760
0,         19,         19,        1,   206344, 0cd1a4c459402e82d7c89a131d6f75fe
0,         20,         20,        1,   205404, 52ea62992efacc4bf4234507752cd4ed
0,         21,         21,        1,   205776, 7712e82b94fd155c1e0dfec1db19a298
0,         22,         22,        1,   205600, ec081ebb4e12f35aa47e673c5cd8c858
0,         23,         23,        1,   207040, 637d7b20ab169db4671d76abc986c20d
0,         24,         24,        1,   207484, a776de1269ad564e1dc21ead94dcc71e
0,         25,         25,        1,   206792, 6aaa68388fb12b2e70eb542819902a97
0,         26,         26,        1,   206384, b4c4d079d7c75b03e2d3915a8676a64d
0,         27,         27,        1,   206296, 521647a00535f63c241b54699b5d803a
0,         28,         28,        1,   204996, 892f0c216d04dfa120576c0cbbbdb0a2
0,         29,         29,        1,   205396, fa1b2301c765bb1ca1c85828918462b9
0,         30,         30,        1,   205812, e40d8da60a07f19b43ab27a13928b87d
0,         31,         31,        1,   206604, 2a06b115a3a400a73ad06b69c90a0768
0,         32,         32,        1,   206568, e6d367cc3d7bd17a6c470fe86591e56d
0,         33,         33,        1,   206908, 8d53fe57b1043562c50a2fd63fa2ebfa
0,         34,         34,        1,   206388, 3a5544a0a814dbba171d0384c91ea566
0,         35,         35,        1,   206700, bfe43124bcbbaef9884893c32396f316
0,         36,         36,        1,   206516, a93e303f30a9269c6d6b59882b668630
0,         37,         37,        1,   206776, 3044d9c98555d3415fc75b085f8aab0a
0,         38,         38,        1,   205940, 870403f6326de73750a57692a288bc2d
0,         39,         39,        1,   205612, f97b94da7b565f67cb476c73c2196bb1
0,         40,         40,        1,   205120, 78341e169158f97791ec9a88ee936048
0,         41,         41,        1,   206132, 83d31e0b40f2850b0767fbd162b4aabd
0,         42,         42,        1,   205984, ba029595b56087c55f324a54cb5e20a6
0,         43,         43,        1,   205964, d067932b507acda9020837ed271eb09e
0,         44,         44,        1,   205376, 62b45f4949405875f947cd6d5133b76d
0,         45,         45,        1,   204756, ec45bcef0601faff97d89f89bfede4f3
0,         46,         46,        1,   204704, 59c9d309aa381e39f3b236d332ae516a
0,         47,         47,        1,   204652, c44f8fba96dfb305cdc797ddfa033899
0,         48,         48,        1,   204460, d0116d06128babcf8ec55205ce89d46a
0,         49,         49,        1,   203624, bbd3523ac263c622541aa67825601fd2
